<svg xmlns="http://www.w3.org/2000/svg" width="16px" height="16px" viewBox="0 0 2048 2048">
	<rect fill-opacity="0.6" x="192" y="192" width="1664" height="1664" rx="384" ry="384" fill="#7cc214"/>
	<g transform="scale(0.63)">
		<path fill-opacity="0.7" transform="translate(349.21000000000004, 2334.24) rotate(180) scale(-1, 1)" fill="#231f20" d="M944 53q-84 -41 -169.5 -61.5t-176.5 -20.5q-230 0 -356.5 133t-126.5 373q0 220 70 436t184 353q107 130 236 192t294 62q80 0 159 -21t154 -61l-41 -207q-64 63 -135 94t-151 31q-95 0 -176 -40.5t-152 -123.5q-104 -123 -167.5 -315t-63.5 -385q0 -173 78 -265 t225 -92q85 0 175.5 32t178.5 93z"/>
		<path fill-opacity="0.7" transform="translate(1582.21, 2334.24) rotate(180) scale(-1, 1)" fill="#231f20" d="M283 1493h202l-118 -612h553l118 612h203l-291 -1493h-202l139 711h-555l-137 -711h-203z"/>
	</g>
</svg>